<?xml version="1.0" standalone="yes"?>
<svg xmlns="http://www.w3.org/2000/svg" width="240" height="142">
<path style="fill:#ffffff; stroke:none;" d="M0 0L0 136L240 136L240 0L0 0z"/>
<path style="fill:#e9e1ef; stroke:none;" d="M108 9C113.462 11.2921 121.113 10 127 10L168 10C162.538 7.70786 154.887 9 149 9L108 9z"/>
<path style="fill:#cbbadb; stroke:none;" d="M108 10C111.959 11.6611 116.74 11 121 11L147 11C143.041 9.3389 138.26 10 134 10L108 10z"/>
<path style="fill:#cab7d9; stroke:none;" d="M151 10C155.974 12.0872 162.638 11 168 11C163.026 8.91281 156.362 10 151 10z"/>
<path style="fill:#dcd1e7; stroke:none;" d="M102 11C103.248 11.6848 103.548 11.7488 105 12C103.752 11.3152 103.452 11.2512 102 11z"/>
<path style="fill:#a88ac5; stroke:none;" d="M105 11C106.506 11.683 107.315 11.8259 109 12C107.494 11.317 106.685 11.1741 105 11z"/>
<path style="fill:#966fb8; stroke:none;" d="M109 11C112.959 12.6611 117.74 12 122 12L147 12C143.041 10.3389 138.26 11 134 11L109 11z"/>
<path style="fill:#ab8bc8; stroke:none;" d="M147 11C148.328 16.5796 148.039 22.2923 147.999 28C147.983 30.4182 148.268 33.5257 146.397 35.3966C143.972 37.8212 139.113 36.9997 136 37C136 47.4659 138.22 60.7606 135.687 70.9105C135.049 73.4655 133.113 75.638 132 78C139.643 76.8945 147.304 92.4594 149 99L134 99C142.445 102.544 152.309 98.0067 161 98L161 37L151 37L151 28L162 28C158.568 26.5597 154.7 27 151 27L151 19L162 19C158.568 17.5597 154.7 18 151 18L151 11L147 11z"/>
<path style="fill:#9066b6; stroke:none;" d="M151 11L151 18L162 18C158.343 19.0809 154.801 18.9996 151 19L151 26L163 26L163 29L151 29L151 36C156.759 36 162.282 35.4513 168 35L168 11L151 11z"/>
<path style="fill:#b59ace; stroke:none;" d="M168 11L168 35L163 35C165.052 35.8743 166.747 35.9528 169 36C169 28.503 170.907 17.9279 168 11z"/>
<path style="fill:#d8cae5; stroke:none;" d="M169 11L169 36C171.413 30.2497 171.413 16.7503 169 11z"/>
<path style="fill:#e9e1f0; stroke:none;" d="M98 14L101 13C99.2218 12.0446 98.9786 12.2337 98 14z"/>
<path style="fill:#c5b0d8; stroke:none;" d="M101.667 12.3333C101.222 12.7778 102.278 12.7222 102.333 12.6667C102.778 12.2222 101.722 12.2778 101.667 12.3333z"/>
<path style="fill:#936cb5; stroke:none;" d="M103 12C104.506 12.683 105.315 12.8259 107 13C105.494 12.317 104.685 12.1741 103 12z"/>
<path style="fill:#8252ad; stroke:none;" d="M128 75C121.982 75 114.627 76.1712 109.09 73.4105C92.9491 65.3637 92.5996 46.1359 108.09 37.189C115.429 32.9496 126.805 35 135 35C133.233 27.5766 134 19.5932 134 12C122.98 12 109.359 9.93001 99 14.4012C75.1048 24.7155 63.6992 53.5827 77.0957 76.9599C82.3044 86.0492 92.549 95.2286 103 97.3696C106.079 98.0005 110.645 98.766 113.621 97.3966C116.114 96.2495 117.556 93.2051 118.95 90.9992C122.206 85.846 125.899 80.7396 128 75z"/>
<path style="fill:#7946a7; stroke:none;" d="M134 12C134 17.3302 133.904 22.6701 134.005 27.9992C134.042 29.9809 133.864 32.5945 135.603 33.9722C138.051 35.9107 143.073 35 146 35L146 12L134 12z"/>
<path style="fill:#8a5eb2; stroke:none;" d="M146 12L146 35L134 35C137.959 36.6611 142.737 36 147 36C147 28.7674 148.806 18.6867 146 12z"/>
<path style="fill:#9e7abf; stroke:none;" d="M147 12L147 36C149.349 30.4031 149.349 17.5969 147 12z"/>
<path style="fill:#7f4fab; stroke:none;" d="M152 12L152 16L162 16L162 12L152 12z"/>
<path style="fill:#a888c3; stroke:none;" d="M99.6667 13.3333C99.2222 13.7778 100.278 13.7222 100.333 13.6667C100.778 13.2222 99.7222 13.2778 99.6667 13.3333z"/>
<path style="fill:#ded3e9; stroke:none;" d="M94 16L97 15C95.2218 14.0445 94.9786 14.2337 94 16z"/>
<path style="fill:#a988c4; stroke:none;" d="M97.6667 14.3333C97.2222 14.7778 98.2778 14.7222 98.3333 14.6667C98.7778 14.2222 97.7222 14.2778 97.6667 14.3333z"/>
<path style="fill:#9269b7; stroke:none;" d="M94 17C95.58 16.3164 95.7772 16.1952 97 15C95.42 15.6836 95.2228 15.8048 94 17z"/>
<path style="fill:#c8b4d9; stroke:none;" d="M90 17C91.8092 17.5743 92.0688 17.4653 94 17C92.3407 16.5935 91.7582 16.6914 90 17z"/>
<path style="fill:#b094ca; stroke:none;" d="M89 18L89 20C90.6351 19.4549 90.4549 19.6352 91 18L89 18z"/>
<path style="fill:#cbb8dc; stroke:none;" d="M87 19L87 21C88.6352 20.4549 88.4549 20.6352 89 19L87 19z"/>
<path style="fill:#7e4daa; stroke:none;" d="M152 20L152 25L163 25L163 20L152 20z"/>
<path style="fill:#b69ccd; stroke:none;" d="M85 21L85 23C86.6351 22.4549 86.4549 22.6352 87 21L85 21z"/>
<path style="fill:#b59acd; stroke:none;" d="M82 26C83.4566 24.8966 83.8966 24.4566 85 23C82.8764 23.8993 82.8993 23.8764 82 26z"/>
<path style="fill:#c2add5; stroke:none;" d="M80 26L80 28C81.6351 27.4549 81.4549 27.6351 82 26L80 26z"/>
<path style="fill:#9a73bd; stroke:none;" d="M151 26C154.432 27.4403 158.3 27 162 27C158.343 28.0809 154.801 27.9996 151 28C154.697 29.5515 159.017 29 163 29L163 26L151 26z"/>
<path style="fill:#a585c2; stroke:none;" d="M79 28L79 30C80.6351 29.4549 80.4549 29.6352 81 28L79 28z"/>
<path style="fill:#d1c1e0; stroke:none;" d="M78 29C76.6021 31.0505 75.7492 32.6459 75 35C77.0149 33.0924 78.2505 31.7921 78 29z"/>
<path style="fill:#7f4fab; stroke:none;" d="M152 30L152 35L163 35L163 30L152 30z"/>
<path style="fill:#a98ac7; stroke:none;" d="M75.3333 35.6667C75.2778 35.7222 75.2222 36.7778 75.6667 36.3333C75.7222 36.2778 75.7778 35.2222 75.3333 35.6667z"/>
<path style="fill:#a27fc0; stroke:none;" d="M111 35C117.445 37.7044 127.032 36 134 36C127.555 33.2956 117.968 35 111 35z"/>
<path style="fill:#e6deed; stroke:none;" d="M73 36L73 39C74.0154 37.8607 74.3087 37.3884 75 36L73 36z"/>
<path style="fill:#9973bb; stroke:none;" d="M108.667 36.3333C108.222 36.7778 109.278 36.7222 109.333 36.6667C109.778 36.2222 108.722 36.2778 108.667 36.3333z"/>
<path style="fill:#c9b5da; stroke:none;" d="M110 36C116.687 38.8058 126.767 37 134 37C127.313 34.1942 117.233 36 110 36z"/>
<path style="fill:#9770ba; stroke:none;" d="M134 36C137.959 37.6611 142.737 37 147 37C143.041 35.3389 138.263 36 134 36z"/>
<path style="fill:#9a75bd; stroke:none;" d="M151 36C154.697 37.5515 159.017 37 163 37C159.303 35.4485 154.983 36 151 36z"/>
<path style="fill:#d3c4e2; stroke:none;" d="M163 36C164.769 36.7789 166.036 36.9124 168 37C166.231 36.2211 164.964 36.0876 163 36z"/>
<path style="fill:#a687c2; stroke:none;" d="M74.3333 37.6667C74.2778 37.7222 74.2222 38.7778 74.6667 38.3333C74.7222 38.2778 74.7778 37.2222 74.3333 37.6667z"/>
<path style="fill:#b89fce; stroke:none;" d="M107.667 37.3333C107.222 37.7777 108.278 37.7222 108.333 37.6667C108.778 37.2222 107.722 37.2778 107.667 37.3333z"/>
<path style="fill:#ddd2e7; stroke:none;" d="M107 38C108.809 38.5743 109.069 38.4653 111 38C109.341 37.5935 108.758 37.6914 107 38z"/>
<path style="fill:#ece5f3; stroke:none;" d="M133 37L133 75C136.105 67.6005 134 56.0074 134 48C134 44.2976 134.441 40.4346 133 37z"/>
<path style="fill:#cfbedf; stroke:none;" d="M134 37L134 74C137.004 66.8407 135 55.7437 135 48C135 44.2976 135.441 40.4346 134 37z"/>
<path style="fill:#b89dd0; stroke:none;" d="M135 37L135 74C138.004 66.8407 136 55.7437 136 48C136 44.2976 136.441 40.4346 135 37z"/>
<path style="fill:#b79ace; stroke:none;" d="M161 37L161 98L151 98C154.432 99.4403 158.3 99 162 99L162 57C162 50.846 163.395 42.7073 161 37z"/>
<path style="fill:#d0bedf; stroke:none;" d="M162 37L162 99C164.085 94.0309 163 87.3503 163 82L163 52C163 47.1913 163.875 41.4688 162 37z"/>
<path style="fill:#f7f4f9; stroke:none;" d="M163 37L163 76C163 84.3386 163.527 92.7739 162 101C165.494 96.3877 164 88.5923 164 83L164 38L168 38C166.231 37.2211 164.964 37.0876 163 37z"/>
<path style="fill:#b79cce; stroke:none;" d="M105 38L105 40C106.635 39.4549 106.455 39.6352 107 38L105 38z"/>
<path style="fill:#bea6d3; stroke:none;" d="M73.3333 39.6667C73.2778 39.7222 73.2222 40.7778 73.6667 40.3333C73.7222 40.2778 73.7778 39.2222 73.3333 39.6667z"/>
<path style="fill:#d2c2e0; stroke:none;" d="M103 40L103 42C104.635 41.4549 104.455 41.6352 105 40L103 40z"/>
<path style="fill:#c5b2d6; stroke:none;" d="M72.3333 41.6667C72.2778 41.7222 72.2223 42.7778 72.6667 42.3333C72.7222 42.2778 72.7778 41.2222 72.3333 41.6667z"/>
<path style="fill:#b297ca; stroke:none;" d="M102 41L103 42L102 41z"/>
<path style="fill:#d0c2df; stroke:none;" d="M99 46C100.753 44.6697 101.67 43.7525 103 42C100.751 43.1536 100.154 43.7511 99 46z"/>
<path style="fill:#e3d9eb; stroke:none;" d="M70 45L70 49C71.0811 47.542 71.436 46.752 72 45L70 45z"/>
<path style="fill:#c2aed5; stroke:none;" d="M98.3333 46.6667C98.2778 46.7222 98.2223 47.7778 98.6667 47.3333C98.7222 47.2778 98.7778 46.2222 98.3333 46.6667z"/>
<path style="fill:#a98ac5; stroke:none;" d="M71 47L71 62C72.7404 57.8523 72.7404 51.1477 71 47z"/>
<path style="fill:#a483c2; stroke:none;" d="M97.3333 47.6667C97.2778 47.7222 97.2222 48.7778 97.6667 48.3333C97.7222 48.2778 97.7778 47.2222 97.3333 47.6667z"/>
<path style="fill:#d1c1e0; stroke:none;" d="M70 49L70 62C71.5909 58.2087 71.5909 52.7913 70 49z"/>
<path style="fill:#d7c9e4; stroke:none;" d="M97 49L97 60C98.4309 56.59 98.4309 52.41 97 49z"/>
<path style="fill:#ac8fc7; stroke:none;" d="M96 50L96 60C97.3457 56.793 97.3457 53.207 96 50z"/>
<path style="fill:#a787c3; stroke:none;" d="M97.3333 60.6667C97.2778 60.7222 97.2222 61.7778 97.6667 61.3333C97.7222 61.2778 97.7778 60.2222 97.3333 60.6667z"/>
<path style="fill:#e4dbed; stroke:none;" d="M71 62L71 69C72.0595 66.4657 72.0595 64.5343 71 62z"/>
<path style="fill:#ab8ec5; stroke:none;" d="M98.3333 62.6667C98.2778 62.7222 98.2222 63.7778 98.6667 63.3333C98.7222 63.2778 98.7778 62.2222 98.3333 62.6667z"/>
<path style="fill:#9d79be; stroke:none;" d="M72 63L72 66C72.6961 64.4463 72.6961 64.5537 72 63z"/>
<path style="fill:#c4afd7; stroke:none;" d="M99 63L100 67C100.393 65.076 100.146 64.6404 99 63z"/>
<path style="fill:#c3add5; stroke:none;" d="M72 66L72 69C72.6961 67.4463 72.6961 67.5537 72 66z"/>
<path style="fill:#9e7abd; stroke:none;" d="M73 66L73 69C73.6961 67.4463 73.6961 67.5537 73 66z"/>
<path style="fill:#e2d8eb; stroke:none;" d="M101.667 67.3333C101.222 67.7778 102.278 67.7222 102.333 67.6667C102.778 67.2222 101.722 67.2778 101.667 67.3333z"/>
<path style="fill:#9d77bd; stroke:none;" d="M102.333 68.6667C102.278 68.7222 102.222 69.7778 102.667 69.3333C102.722 69.2778 102.778 68.2222 102.333 68.6667z"/>
<path style="fill:#d8cbe4; stroke:none;" d="M73 69C73.1759 70.8781 73.4382 72.1994 74 74C74.4734 71.8571 74.1326 70.8987 73 69z"/>
<path style="fill:#d9cbe5; stroke:none;" d="M103.667 69.3333C103.222 69.7778 104.278 69.7222 104.333 69.6667C104.778 69.2222 103.722 69.2778 103.667 69.3333z"/>
<path style="fill:#d5c6e2; stroke:none;" d="M106.667 71.3333C106.222 71.7778 107.278 71.7222 107.333 71.6667C107.778 71.2222 106.722 71.2778 106.667 71.3333z"/>
<path style="fill:#af91c9; stroke:none;" d="M106.667 72.3333C106.222 72.7778 107.278 72.7222 107.333 72.6667C107.778 72.2222 106.722 72.2778 106.667 72.3333z"/>
<path style="fill:#f3eff7; stroke:none;" d="M108 72C114.202 74.6026 123.298 73 130 73C123.798 70.3974 114.702 72 108 72z"/>
<path style="fill:#b89ecf; stroke:none;" d="M75.3333 73.6667C75.2778 73.7222 75.2222 74.7778 75.6667 74.3333C75.7222 74.2778 75.7778 73.2222 75.3333 73.6667z"/>
<path style="fill:#9771ba; stroke:none;" d="M109 73C110.223 74.1952 110.42 74.3164 112 75C110.777 73.8048 110.58 73.6836 109 73z"/>
<path style="fill:#dbcfe7; stroke:none;" d="M111 73C116.469 75.295 124.099 74 130 74C124.531 71.705 116.901 73 111 73z"/>
<path style="fill:#ad8ec9; stroke:none;" d="M112 74C117.204 76.1836 123.318 73.4532 128 77C129.786 72.262 115.168 74 112 74z"/>
<path style="fill:#c2aed5; stroke:none;" d="M129.333 74.6667C129.278 74.7223 129.222 75.7777 129.667 75.3333C129.722 75.2778 129.778 74.2222 129.333 74.6667z"/>
<path style="fill:#dbcfe5; stroke:none;" d="M75 75C75.6836 76.58 75.8048 76.7772 77 78C76.3164 76.42 76.1952 76.2228 75 75z"/>
<path style="fill:#8658af; stroke:none;" d="M134 76C132.604 82.4423 134 90.3062 134 97C136.295 91.5308 135 83.9013 135 78C136.963 80.4545 138.655 82.9229 141 85C139.573 80.8606 137.98 77.9836 134 76z"/>
<path style="fill:#bea8d3; stroke:none;" d="M77.3333 77.6667C77.2778 77.7222 77.2222 78.7778 77.6667 78.3333C77.7222 78.2778 77.7778 77.2222 77.3333 77.6667z"/>
<path style="fill:#c5b1d8; stroke:none;" d="M127 77C126.11 78.7447 125.547 80.125 125 82C126.752 80.4104 127.794 79.0463 129 77L127 77z"/>
<path style="fill:#b79dcf; stroke:none;" d="M131 78C128.387 81.8732 125.66 85.6207 124 90C127.399 87.1912 131.675 82.6526 131 78z"/>
<path style="fill:#8f65b5; stroke:none;" d="M132 78C128.688 85.0015 123.737 91.1936 120 98L134 98C134 91.821 135.598 83.2666 132 78z"/>
<path style="fill:#7e4dab; stroke:none;" d="M135 78C135 84.6593 135.551 91.4868 134 98L149 98C147.18 91.0002 140.396 82.769 135 78z"/>
<path style="fill:#d5c6e2; stroke:none;" d="M78.3333 79.6667C78.2778 79.7222 78.2222 80.7778 78.6667 80.3333C78.7222 80.2778 78.7778 79.2222 78.3333 79.6667z"/>
<path style="fill:#9f7bbf; stroke:none;" d="M79 81C79.5451 82.6352 79.3648 82.4549 81 83L81 81L79 81z"/>
<path style="fill:#bfa8d4; stroke:none;" d="M124 82C122.286 84.624 120.944 87.0133 120 90C122.464 87.7158 124.502 85.4494 124 82z"/>
<path style="fill:#9268b6; stroke:none;" d="M81 83C82.1034 84.4566 82.5434 84.8966 84 86C83.1007 83.8764 83.1236 83.8993 81 83z"/>
<path style="fill:#8f65b5; stroke:none;" d="M142 86C142.684 87.58 142.805 87.7772 144 89C143.316 87.42 143.195 87.2228 142 86z"/>
<path style="fill:#ece5f2; stroke:none;" d="M84 87C85.3241 89.6866 86.3134 90.6759 89 92C87.6374 89.6575 86.2683 88.5083 84 87z"/>
<path style="fill:#946cb9; stroke:none;" d="M86 88C87.2228 89.1952 87.42 89.3164 89 90C87.7772 88.8048 87.58 88.6836 86 88z"/>
<path style="fill:#c9b6db; stroke:none;" d="M119 90C117.739 92.0098 116.81 93.7778 116 96C118.153 94.1145 119.41 92.8883 119 90z"/>
<path style="fill:#a988c5; stroke:none;" d="M123 90C121.817 92.3281 120.777 94.5113 120 97C122.256 94.8526 123.728 93.1327 123 90z"/>
<path style="fill:#ab8cc7; stroke:none;" d="M89.6667 91.3333C89.2222 91.7778 90.2778 91.7222 90.3333 91.6667C90.7778 91.2222 89.7222 91.2778 89.6667 91.3333z"/>
<path style="fill:#9974ba; stroke:none;" d="M91.6667 92.3333C91.2222 92.7778 92.2778 92.7222 92.3333 92.6667C92.7778 92.2222 91.7222 92.2778 91.6667 92.3333z"/>
<path style="fill:#b396cb; stroke:none;" d="M92.6667 93.3333C92.2222 93.7777 93.2778 93.7222 93.3333 93.6667C93.7778 93.2222 92.7222 93.2778 92.6667 93.3333z"/>
<path style="fill:#a685c3; stroke:none;" d="M94.6667 94.3333C94.2222 94.7778 95.2778 94.7222 95.3333 94.6667C95.7778 94.2222 94.7222 94.2778 94.6667 94.3333z"/>
<path style="fill:#c8b4da; stroke:none;" d="M95 95C96.458 96.0811 97.248 96.436 99 97C97.457 95.7333 96.9522 95.5108 95 95z"/>
<path style="fill:#e3daeb; stroke:none;" d="M115 96L114 100C115.434 98.6075 116.045 97.7672 117 96L115 96z"/>
<path style="fill:#ddd1e8; stroke:none;" d="M100 97C101.223 98.1952 101.42 98.3164 103 99C101.777 97.8048 101.58 97.6836 100 97z"/>
<path style="fill:#a585c2; stroke:none;" d="M102.667 97.3333C102.222 97.7778 103.278 97.7222 103.333 97.6667C103.778 97.2222 102.722 97.2778 102.667 97.3333z"/>
<path style="fill:#e0d5e9; stroke:none;" d="M118 97L118 101L162 101C153.882 97.5934 140.797 100 132 100C126.819 100 121.973 100.793 118 97z"/>
<path style="fill:#bba4cf; stroke:none;" d="M119 97C120.085 102.063 129.693 100 134 100C129.107 97.9469 123.863 99.7044 119 97z"/>
<path style="fill:#b599cd; stroke:none;" d="M103 98C104.506 98.683 105.315 98.8259 107 99C105.494 98.317 104.685 98.1741 103 98z"/>
<path style="fill:#9c77be; stroke:none;" d="M107 98C109.332 98.9845 111.457 98.9813 114 99C111.668 98.0155 109.543 98.0187 107 98z"/>
<path style="fill:#9e7abd; stroke:none;" d="M120 98C124.217 99.7693 129.459 99 134 99C129.783 97.2307 124.541 98 120 98z"/>
<path style="fill:#8f65b3; stroke:none;" d="M134 98C138.471 99.8763 144.183 99 149 99C144.529 97.1237 138.817 98 134 98z"/>
<path style="fill:#c7b4d9; stroke:none;" d="M107 99C109.332 99.9845 111.457 99.9813 114 100C111.668 99.0155 109.543 99.0187 107 99z"/>
<path style="fill:#cdbbdc; stroke:none;" d="M151 99C154.432 100.44 158.3 100 162 100C158.568 98.5597 154.7 99 151 99z"/>
<path style="fill:#e6ddee; stroke:none;" d="M108 100C110.052 100.874 111.747 100.953 114 101C111.948 100.126 110.253 100.047 108 100z"/>
<path style="fill:#dbcfe6; stroke:none;" d="M84.6667 107.333C84.2222 107.778 85.2778 107.722 85.3333 107.667C85.7778 107.222 84.7222 107.278 84.6667 107.333z"/>
<path style="fill:#eee9f2; stroke:none;" d="M98 107C99.2323 108.781 100.142 109.94 102 111C101.161 108.374 100.626 107.839 98 107z"/>
<path style="fill:#c7b5d8; stroke:none;" d="M121 114C121.683 112.494 121.826 111.685 122 110C123.023 111.534 122.805 111.402 124 112L125 107C121.832 108.744 121.269 110.435 121 114z"/>
<path style="fill:#e6dfee; stroke:none;" d="M82 108L82 111C83.0154 109.861 83.3087 109.388 84 108L82 108z"/>
<path style="fill:#bca6d2; stroke:none;" d="M84.6667 108.333C84.2222 108.778 85.2778 108.722 85.3333 108.667C85.7778 108.222 84.7222 108.278 84.6667 108.333z"/>
<path style="fill:#d4c6df; stroke:none;" d="M98.6667 108.333C98.2222 108.778 99.2778 108.722 99.3333 108.667C99.7778 108.222 98.7222 108.278 98.6667 108.333z"/>
<path style="fill:#efeaf3; stroke:none;" d="M130 108L130 116L134 116C132.752 115.315 132.452 115.251 131 115L131 109L135 109C133.231 108.221 131.964 108.088 130 108z"/>
<path style="fill:#ede8f2; stroke:none;" d="M75 110C75.97 112.492 76.4749 113.146 79 114L79 109L75 110z"/>
<path style="fill:#9773b7; stroke:none;" d="M83 109C82.2097 113.05 82.9159 116.904 83 121C84.581 117.234 84.4872 112.948 86 109L83 109z"/>
<path style="fill:#e0d8e8; stroke:none;" d="M97 109C90.9731 111.81 91.8807 114.993 92 121L94 121C93.9738 117.878 93.7243 115.04 93 112C94.8499 111.798 96.1501 111.798 98 112C97.7488 110.548 97.6848 110.248 97 109z"/>
<path style="fill:#ae93c6; stroke:none;" d="M98 109L98 111L100 111L100 109L98 109z"/>
<path style="fill:#dacfe5; stroke:none;" d="M131 109L131 115L134 115L135 109L131 109z"/>
<path style="fill:#e4deeb; stroke:none;" d="M135 109L134 110L135 116L145 116C142.11 114.787 139.126 115.002 136 115L136 111C139.043 111.515 141.909 111.125 145 111C141.844 109.356 138.486 109.462 135 109z"/>
<path style="fill:#cbbcd8; stroke:none;" d="M151 109C149.457 110.267 148.952 110.489 147 111L147 116L149 116L149 112L154 113L153 109L151 109z"/>
<path style="fill:#a78cc2; stroke:none;" d="M122 110C121.816 112.111 121.762 113.905 122 116C123.416 115.528 123.814 115.186 125 114C124.041 112.403 123.274 111.341 122 110z"/>
<path style="fill:#e5ddeb; stroke:none;" d="M147 110C148.506 110.683 149.315 110.826 151 111C149.494 110.317 148.685 110.174 147 110z"/>
<path style="fill:#efeaf3; stroke:none;" d="M154 110C157.432 111.44 161.3 111 165 111C161.568 109.56 157.7 110 154 110z"/>
<path style="fill:#b195c8; stroke:none;" d="M84 111L84 121C83.2776 118.582 83.0519 116.528 83 114C81.9023 116.613 82.0072 119.165 82 122L85 122C85 118.3 85.4403 114.432 84 111z"/>
<path style="fill:#d5c8e1; stroke:none;" d="M85 111L85 122C83.42 121.316 83.2228 121.195 82 120C80.9049 122.905 83.5501 122.88 86 123C86 119.017 86.5515 114.697 85 111z"/>
<path style="fill:#b198c9; stroke:none;" d="M94 111C93.3345 114.933 93.9889 118.985 94 123C95.3963 122.339 95.8137 122.036 97 121C95.1903 117.746 95.392 114.308 94 111z"/>
<path style="fill:#a181bf; stroke:none;" d="M95 111L95 116C96.2997 115.35 96 115.853 96 114C96.4645 116.478 96.474 116.99 95 119C98.611 120.361 98.4994 114.643 99 112L95 111z"/>
<path style="fill:#ddd4e7; stroke:none;" d="M108 111C108.902 112.923 109.076 112.999 111 114C110.518 111.636 110.364 111.482 108 111z"/>
<path style="fill:#f0ecf5; stroke:none;" d="M120 111L116 112L116 118C117.091 116.072 117.165 115.23 117 113C118.944 112.859 120.84 113.035 120 111z"/>
<path style="fill:#d6cbe0; stroke:none;" d="M136 111L136 115L148 116.481L163 115L163 111C158.273 111.004 153.648 112.31 149 112L149 116L147 116L147 111L136 111z"/>
<path style="fill:#c4b3d3; stroke:none;" d="M163 111L163 115C163.71 113.241 163.71 112.759 163 111z"/>
<path style="fill:#d5c9e0; stroke:none;" d="M164 111L164 115C164.71 113.241 164.71 112.759 164 111z"/>
<path style="fill:#bca6d2; stroke:none;" d="M76 114C77.3766 114.911 78.4399 115.404 80 116L82 112L76 114z"/>
<path style="fill:#eeeaf2; stroke:none;" d="M99 112L99 121C100.256 118.006 100.256 114.994 99 112z"/>
<path style="fill:#e5deed; stroke:none;" d="M124 112C124.402 114.502 124.359 116.489 124 119C125.817 116.794 126.394 114.802 127 112L124 112z"/>
<path style="fill:#c1add2; stroke:none;" d="M108.667 113.333C108.222 113.778 109.278 113.722 109.333 113.667C109.778 113.222 108.722 113.278 108.667 113.333z"/>
<path style="fill:#dbd2e4; stroke:none;" d="M117 113C118.724 114.055 118.921 114.036 121 114C119.494 113.317 118.685 113.174 117 113z"/>
<path style="fill:#d2c1e1; stroke:none;" d="M75 114L75 124L79 124L79 120L76 123C75.9983 119.874 76.2129 116.89 75 114z"/>
<path style="fill:#f2eef6; stroke:none;" d="M80 114C78.4951 120.323 78.6957 124.595 86 125L86 123L81 123C81.5621 119.975 81.9364 117.078 82 114L80 114z"/>
<path style="fill:#8c63b2; stroke:none;" d="M96 114L95 119C96.8793 117.377 96.9157 116.3 96 114z"/>
<path style="fill:#dbd1e5; stroke:none;" d="M98 114C97.7963 117.201 96.9527 119.949 96 123C98.7462 120.311 99.5021 117.622 98 114z"/>
<path style="fill:#a483be; stroke:none;" d="M106 119C108.687 117.676 109.676 116.687 111 114C107.936 114.863 106.863 115.935 106 119z"/>
<path style="fill:#d2c6de; stroke:none;" d="M117 115L119 121C120.402 119.058 121.221 117.27 122 115L121 114L117 115z"/>
<path style="fill:#c1acd3; stroke:none;" d="M124 114C123.115 116.1 122.965 116.74 123 119C124.318 117.074 124.651 116.234 124 114z"/>
<path style="fill:#a486bf; stroke:none;" d="M76 115L76 123C78.7273 120.925 78.8457 118.324 79 115L76 115z"/>
<path style="fill:#e4ddec; stroke:none;" d="M151 115C155.217 116.769 160.459 116 165 116C160.783 114.231 155.541 115 151 115z"/>
<path style="fill:#8a5faf; stroke:none;" d="M77 116L77 119C77.6961 117.446 77.6961 117.554 77 116z"/>
<path style="fill:#f1eef5; stroke:none;" d="M104 116L105 121C105.779 119.231 105.912 117.964 106 116L104 116z"/>
<path style="fill:#dbcfe5; stroke:none;" d="M109 117C107.034 118.98 105.945 120.388 105 123L109 121C109.98 122.783 109.908 122.594 112 123C111.402 121.805 111.534 122.023 110 121C111.222 119.272 110.378 118.597 109 117z"/>
<path style="fill:#b59dca; stroke:none;" d="M121 117C119.988 119.373 119.378 121.449 119 124L123 124L123 117L121 117z"/>
<path style="fill:#efecf3; stroke:none;" d="M128 117L128 123C128.779 121.231 128.912 119.964 129 118L132 118C132 120.952 133.332 123.57 130 124C133.697 125.552 138.017 125 142 125C140.538 123.538 139.151 125.075 137 124C134.074 122.537 133.622 120.297 135 118L136 119C133.896 116.591 131.094 117.01 128 117z"/>
<path style="fill:#ddd5e4; stroke:none;" d="M134 118L134 122C137.268 120.379 139.24 120.633 142 123L144 123C144.545 121.365 144.365 121.545 146 121C147.94 125.371 161.888 126.188 163 121C163.562 122.801 163.824 124.122 164 126C167.321 124.901 167.737 123.41 168 120C165.352 119.499 162.683 118.068 160 117.95C151.332 117.569 142.802 119.938 134 118z"/>
<path style="fill:#d7cbe4; stroke:none;" d="M129 118C129.263 121.41 129.679 122.901 133 124L132 118L129 118z"/>
<path style="fill:#d9cde5; stroke:none;" d="M123 119L123 123C123.71 121.241 123.71 120.759 123 119z"/>
<path style="fill:#d2c7dd; stroke:none;" d="M135 120C136.223 123.687 138.308 123.88 142 124C140.961 120.449 138.47 120.248 135 120z"/>
<path style="fill:#bba4ce; stroke:none;" d="M110.667 121.333C110.222 121.778 111.278 121.722 111.333 121.667C111.778 121.222 110.722 121.278 110.667 121.333z"/>
<path style="fill:#d8cde3; stroke:none;" d="M118.333 121.667C118.278 121.722 118.222 122.778 118.667 122.333C118.722 122.278 118.778 121.222 118.333 121.667z"/>
<path style="fill:#ccbdd9; stroke:none;" d="M144 121L144 124L146 124L146 121L144 121z"/>
<path style="fill:#f4f1f6; stroke:none;" d="M163 121C159.942 125.717 152.074 124 147 124C152.15 126.161 158.484 124.687 164 126C163.912 124.036 163.779 122.769 163 121z"/>
<path style="fill:#d4c8e0; stroke:none;" d="M94.6667 123.333C94.2222 123.778 95.2778 123.722 95.3333 123.667C95.7778 123.222 94.7222 123.278 94.6667 123.333z"/>
<path style="fill:#e9e1ef; stroke:none;" d="M75 124C76.5061 124.683 77.3148 124.826 79 125C77.494 124.317 76.6852 124.174 75 124z"/>
<path style="fill:#ece5f1; stroke:none;" d="M120 126C121.58 125.316 121.777 125.195 123 124C120.908 124.406 120.98 124.217 120 126z"/>
<path style="fill:#eaeaea; stroke:none;" d="M0 136L0 139L240 139L240 136L0 136z"/>
<path style="fill:#efefef; stroke:none;" d="M0 139L0 142L240 142L240 139L0 139z"/>
</svg>
