<?xml version="1.0" standalone="yes"?>
<svg xmlns="http://www.w3.org/2000/svg" width="270" height="86">
<path style="fill:#ffffff; stroke:none;" d="M0 0L0 86L270 86L270 0L0 0z"/>
<path style="fill:#cdd3f1; stroke:none;" d="M40 14C41.2483 14.6848 41.5484 14.7488 43 15C41.7516 14.3152 41.4516 14.2512 40 14z"/>
<path style="fill:#9ba7e4; stroke:none;" d="M43 14C44.2483 14.6848 44.5484 14.7488 46 15C44.7516 14.3152 44.4516 14.2512 43 14z"/>
<path style="fill:#cdd3f1; stroke:none;" d="M46.6667 14.3333C46.2222 14.7778 47.2778 14.7222 47.3333 14.6667C47.7778 14.2222 46.7222 14.2778 46.6667 14.3333M35.6667 15.3333C35.2222 15.7778 36.2778 15.7222 36.3333 15.6667C36.7778 15.2222 35.7222 15.2778 35.6667 15.3333z"/>
<path style="fill:#3750c8; stroke:none;" d="M17 45C23.4519 39.8862 23.2699 30.8392 30.0154 25.3904C44.3115 13.8428 65.4538 23.5369 66 42C63.5643 39.5662 59.8014 34.2063 56 34.2068C50.178 34.2075 44.4481 44.4788 40 47.5972C38.2776 48.8048 34.1099 49.1985 33.3441 51.3511C32.4417 53.8877 35.5608 56.4245 37 58C44.3666 52.8109 49.6334 45.1892 57 40C58.5792 43.3592 64.2917 47.2029 63.6728 51.0394C63.0091 55.1536 58.313 58.6795 55 60.6474C42.5637 68.0342 28.6011 61.7342 23 49C17.2359 53.8531 21.1449 58.9421 26.0903 62.9568C33.0201 68.5824 43.3569 70.6678 52 68.2114C57.3768 66.6833 62.148 63.3597 65.6096 58.9961C68.7759 55.0047 70.7108 50.0832 70.9599 45C71.2281 39.5263 71.2401 33.8926 68.4668 29C54.411 4.20288 12.2809 15.3294 17 45z"/>
<path style="fill:#9ba7e4; stroke:none;" d="M50.6667 15.3333C50.2222 15.7778 51.2778 15.7222 51.3333 15.6667C51.7778 15.2222 50.7222 15.2778 50.6667 15.3333M53.6667 16.3333C53.2222 16.7778 54.2778 16.7222 54.3333 16.6667C54.7778 16.2222 53.7222 16.2778 53.6667 16.3333M31 17L32 18L31 17M56 17L57 18L56 17M29 18L30 19L29 18M58 18L59 19L58 18M59 19L60 20L59 19M26 20L27 21L26 20M38.6667 20.3333C38.2222 20.7778 39.2778 20.7222 39.3333 20.6667C39.7778 20.2222 38.7222 20.2778 38.6667 20.3333z"/>
<path style="fill:#cdd3f1; stroke:none;" d="M40 20C41.2483 20.6848 41.5484 20.7488 43 21C41.7516 20.3152 41.4516 20.2512 40 20M45.6667 20.3333C45.2222 20.7778 46.2778 20.7222 46.3333 20.6667C46.7778 20.2222 45.7222 20.2778 45.6667 20.3333z"/>
<path style="fill:#9ba7e4; stroke:none;" d="M47 20C48.2483 20.6848 48.5484 20.7488 50 21C48.7516 20.3152 48.4516 20.2512 47 20z"/>
<path style="fill:#9093a1; stroke:none;" d="M86 20C88.233 21.0094 90.6044 21.4052 93 22C90.6921 20.2405 88.9077 20.0828 86 20z"/>
<path style="fill:#c7c9d0; stroke:none;" d="M92 20L93 21L92 20z"/>
<path style="fill:#9093a1; stroke:none;" d="M95 20C97.233 21.0094 99.6044 21.4052 102 22C99.6921 20.2405 97.9077 20.0828 95 20z"/>
<path style="fill:#c7c9d0; stroke:none;" d="M101 20L102 21L101 20M129 20L130 21L129 20z"/>
<path style="fill:#9093a1; stroke:none;" d="M130 20L131 21L130 20z"/>
<path style="fill:#c7c9d0; stroke:none;" d="M169 20C170.248 20.6848 170.548 20.7488 172 21C170.752 20.3152 170.452 20.2512 169 20z"/>
<path style="fill:#9093a1; stroke:none;" d="M172.667 20.3333C172.222 20.7777 173.278 20.7222 173.333 20.6667C173.778 20.2222 172.722 20.2778 172.667 20.3333z"/>
<path style="fill:#595e72; stroke:none;" d="M174 20C175.248 20.6848 175.548 20.7488 177 21L176 25C177.422 23.2115 177.697 22.2942 178 20L174 20z"/>
<path style="fill:#c7c9d0; stroke:none;" d="M187 20C186.996 25.6831 187.159 31.1787 180 30C182.508 31.886 183.982 31.8166 187 31C186.988 35.3573 186.315 39.6954 187 44C189.349 38.4031 189.349 25.5969 187 20z"/>
<path style="fill:#595e72; stroke:none;" d="M188 20C189.769 20.7789 191.036 20.9124 193 21L193 44C194.972 39.2998 194.034 33.0621 193.999 28C193.985 25.982 194.284 23.3186 192.977 21.6034C191.774 20.0251 189.758 20.137 188 20z"/>
<path style="fill:#9093a1; stroke:none;" d="M193 20L194 21L193 20z"/>
<path style="fill:#212943; stroke:none;" d="M204 20C203.825 22.6981 202.519 25.3683 202.519 28C202.519 31.3787 204.171 34.4324 203.945 37.9853C203.774 40.6751 202.224 43.2514 202.388 45.9198C202.766 52.064 204.187 56.607 203 63C210.604 62.4075 209.246 55.1088 210.114 49.0394C210.561 45.9192 211.789 43.1782 212 40L210 41L211.481 28L210 20L204 20z"/>
<path style="fill:#c7c9d0; stroke:none;" d="M221 20L221 24C221.71 22.2405 221.71 21.7595 221 20z"/>
<path style="fill:#212943; stroke:none;" d="M222 20L222 25L214 25L214 29L222 29L222 33L215 33L215 37L229 37L225 46C222.136 42.6645 220.535 40.3603 216 40C217.081 43.4139 220.307 47.0438 220.533 50.5756C220.807 54.8452 215.771 60.2112 214 64C219.686 63.5675 221.56 60.1265 225 56C226.996 60.6077 228.744 63.5848 234 64C232.663 59.7764 228.463 55.43 228.348 51C228.187 44.7863 234.641 39.6372 235 33L227 33L227 29L236 29L236 25C231.461 24.9464 228.428 24.7024 227 20L222 20z"/>
<path style="fill:#595e72; stroke:none;" d="M227 20L227 24C227.71 22.2405 227.71 21.7595 227 20z"/>
<path style="fill:#9ba7e4; stroke:none;" d="M25 21L26 22L25 21M51.6667 21.3333C51.2222 21.7778 52.2778 21.7222 52.3333 21.6667C52.7778 21.2222 51.7222 21.2778 51.6667 21.3333M62 21L63 22L62 21z"/>
<path style="fill:#212943; stroke:none;" d="M86 21L84 30L90 30L92 21L86 21M95 21L93 30L105 28L105 24L100 24C100.986 22.5215 101 22.7968 101 21L95 21z"/>
<path style="fill:#9093a1; stroke:none;" d="M106 21L106 25C106.71 23.2405 106.71 22.7595 106 21z"/>
<path style="fill:#212943; stroke:none;" d="M107 21L107 25L117 25L117 21L107 21z"/>
<path style="fill:#595e72; stroke:none;" d="M117 21L117 25L107 25C110.669 26.5397 118.952 26.9567 117 21z"/>
<path style="fill:#c7c9d0; stroke:none;" d="M125.667 21.3333C125.222 21.7778 126.278 21.7222 126.333 21.6667C126.778 21.2222 125.722 21.2778 125.667 21.3333z"/>
<path style="fill:#595e72; stroke:none;" d="M127 21L128 22L127 21z"/>
<path style="fill:#212943; stroke:none;" d="M126 27L131 27L131 21C127.205 21.8272 126.304 23.1714 126 27z"/>
<path style="fill:#9093a1; stroke:none;" d="M135 21C140.715 23.398 148.831 22 155 22L155 26C157.496 18.3824 139.491 21 135 21z"/>
<path style="fill:#c7c9d0; stroke:none;" d="M155 21L156 22L155 21M162 21L163 22L162 21z"/>
<path style="fill:#595e72; stroke:none;" d="M163 21C164.506 21.683 165.315 21.8259 167 22C165.494 21.317 164.685 21.1741 163 21z"/>
<path style="fill:#212943; stroke:none;" d="M163 22L163 26L167 25L168 29L163 29L163 33L168 33L168 64L173 64L173 33L177 33L177 29L173 29L173 25C175.626 24.1613 176.161 23.6265 177 21C172.237 21.0005 167.716 21.404 163 22M188 21L188 44L179 45L179 49C182.169 48.9919 184.959 48.8996 188 48L188 64L193 64C193 60.1373 192.476 55.8294 193.299 52.0394C193.917 49.1887 195.548 46.9233 196 44L193 44L193 21L188 21z"/>
<path style="fill:#9ba7e4; stroke:none;" d="M24 22L25 23L24 22M53.6667 22.3333C53.2222 22.7778 54.2778 22.7222 54.3333 22.6667C54.7778 22.2222 53.7222 22.2778 53.6667 22.3333M63 22L64 23L63 22z"/>
<path style="fill:#9093a1; stroke:none;" d="M85 22L86 23L85 22M94 22L95 23L94 22z"/>
<path style="fill:#595e72; stroke:none;" d="M125 22L125 27C125.83 24.9695 125.83 24.0305 125 22z"/>
<path style="fill:#c7c9d0; stroke:none;" d="M134 22L134 26C134.71 24.2405 134.71 23.7595 134 22z"/>
<path style="fill:#212943; stroke:none;" d="M135 22L135 26L155 26L155 22L135 22z"/>
<path style="fill:#9093a1; stroke:none;" d="M162 22L162 26C162.71 24.2405 162.71 23.7595 162 22z"/>
<path style="fill:#9ba7e4; stroke:none;" d="M23 23L24 24L23 23M55 23L56 24L55 23M64 23L65 24L64 23z"/>
<path style="fill:#595e72; stroke:none;" d="M85 23L86 24L85 23M91 23L92 24L91 23M94 23L95 24L94 23M100 23L101 24L100 23z"/>
<path style="fill:#9093a1; stroke:none;" d="M101 23C102.506 23.683 103.315 23.8259 105 24C103.494 23.317 102.685 23.1741 101 23z"/>
<path style="fill:#c7c9d0; stroke:none;" d="M105 23L105 28C106.209 25.8692 106.209 25.1308 105 23z"/>
<path style="fill:#9093a1; stroke:none;" d="M180 23C181.769 23.7789 183.036 23.9124 185 24C183.231 23.2211 181.964 23.0876 180 23z"/>
<path style="fill:#c7c9d0; stroke:none;" d="M185.333 23.6667C185.278 23.7222 185.222 24.7778 185.667 24.3333C185.722 24.2777 185.778 23.2222 185.333 23.6667z"/>
<path style="fill:#9ba7e4; stroke:none;" d="M22 24L23 25L22 24M30 24L31 25L30 24M57 24L58 25L57 24z"/>
<path style="fill:#9093a1; stroke:none;" d="M91 24L92 25L91 24M177 24L178 25L177 24z"/>
<path style="fill:#c7c9d0; stroke:none;" d="M179 24L180 25L179 24z"/>
<path style="fill:#212943; stroke:none;" d="M180 24L181 31L186 31L185 24L180 24z"/>
<path style="fill:#c7c9d0; stroke:none;" d="M213 24L213 29C213.83 26.9695 213.83 26.0305 213 24z"/>
<path style="fill:#595e72; stroke:none;" d="M214 24C216.613 25.0977 219.165 24.9928 222 25C219.387 23.9023 216.836 24.0072 214 24M228 24C230.613 25.0977 233.165 24.9928 236 25C233.387 23.9023 230.835 24.0072 228 24z"/>
<path style="fill:#9ba7e4; stroke:none;" d="M21 25L22 26L21 25M29 25L30 26L29 25M58 25L59 26L58 25z"/>
<path style="fill:#9093a1; stroke:none;" d="M84.3333 25.6667C84.2778 25.7222 84.2222 26.7778 84.6667 26.3333C84.7222 26.2778 84.7778 25.2222 84.3333 25.6667z"/>
<path style="fill:#c7c9d0; stroke:none;" d="M91 25L92 26L91 25z"/>
<path style="fill:#9093a1; stroke:none;" d="M93.3333 25.6667C93.2778 25.7222 93.2222 26.7778 93.6667 26.3333C93.7222 26.2778 93.7778 25.2222 93.3333 25.6667M117 25L118 26L117 25z"/>
<path style="fill:#595e72; stroke:none;" d="M165.667 25.3333C165.222 25.7778 166.278 25.7222 166.333 25.6667C166.778 25.2222 165.722 25.2778 165.667 25.3333z"/>
<path style="fill:#c7c9d0; stroke:none;" d="M173 25C173.968 27.9641 174.934 28.5029 178 29C176.185 27.7427 174.565 26.5864 173 25z"/>
<path style="fill:#9093a1; stroke:none;" d="M185 25L186 26L185 25z"/>
<path style="fill:#c7c9d0; stroke:none;" d="M201 25C202.248 25.6848 202.548 25.7488 204 26C202.752 25.3152 202.452 25.2512 201 25M210.667 25.3333C210.222 25.7778 211.278 25.7222 211.333 25.6667C211.778 25.2222 210.722 25.2778 210.667 25.3333z"/>
<path style="fill:#9ba7e4; stroke:none;" d="M59 26L60 27L59 26z"/>
<path style="fill:#595e72; stroke:none;" d="M167 26L167 29C167.696 27.4463 167.696 27.5537 167 26M185.333 26.6667C185.278 26.7222 185.222 27.7778 185.667 27.3333C185.722 27.2778 185.778 26.2222 185.333 26.6667z"/>
<path style="fill:#9093a1; stroke:none;" d="M201 26C201.418 28.6894 201.717 29.5537 204 31L201 26z"/>
<path style="fill:#9ba7e4; stroke:none;" d="M20 27L21 28L20 27M27 27L28 28L27 27M60 27L61 28L60 27M67 27L68 28L67 27z"/>
<path style="fill:#9093a1; stroke:none;" d="M90.3333 27.6667C90.2777 27.7223 90.2222 28.7778 90.6667 28.3333C90.7222 28.2778 90.7778 27.2222 90.3333 27.6667z"/>
<path style="fill:#c7c9d0; stroke:none;" d="M125 27C127.052 27.8742 128.747 27.9528 131 28C128.948 27.1257 127.253 27.0472 125 27z"/>
<path style="fill:#595e72; stroke:none;" d="M180.333 27.6667C180.278 27.7222 180.222 28.7778 180.667 28.3333C180.722 28.2777 180.778 27.2222 180.333 27.6667z"/>
<path style="fill:#697cd6; stroke:none;" d="M19.3333 28.6667C19.2778 28.7222 19.2222 29.7778 19.6667 29.3333C19.7222 29.2778 19.7778 28.2222 19.3333 28.6667z"/>
<path style="fill:#9ba7e4; stroke:none;" d="M26 28L27 29L26 28M61 28L62 29L61 28z"/>
<path style="fill:#c7c9d0; stroke:none;" d="M83 28L84 29L83 28M92 28L93 29L92 28z"/>
<path style="fill:#9093a1; stroke:none;" d="M99 28L100 29L99 28z"/>
<path style="fill:#c7c9d0; stroke:none;" d="M100 28C101.769 28.7789 103.036 28.9124 105 29C103.231 28.2211 101.964 28.0876 100 28M162 28C163.769 28.7789 165.036 28.9124 167 29C165.231 28.2211 163.964 28.0876 162 28z"/>
<path style="fill:#9093a1; stroke:none;" d="M173 28L174 29L173 28z"/>
<path style="fill:#9ba7e4; stroke:none;" d="M25 29L26 30L25 29z"/>
<path style="fill:#9093a1; stroke:none;" d="M83 29L84 30L83 29M92 29L93 30L92 29z"/>
<path style="fill:#595e72; stroke:none;" d="M123 29C125.613 30.0977 128.165 29.9928 131 30L131 51C131.005 53.4197 130.436 57.2552 132.603 58.9722C134.492 60.468 137.764 59.9954 140 60L157 60L157 63L126 63C132.645 65.7884 142.816 64.0488 150 63.9992C151.732 63.9873 157.722 64.4057 157.079 61.1698C156.601 58.7678 152.759 59.0379 150.999 59.0046C144.671 58.885 138.33 59 132 59L132 39C131.999 36.5297 132.624 32.6909 130.972 30.6034C129.257 28.435 125.424 29.0086 123 29z"/>
<path style="fill:#9093a1; stroke:none;" d="M131 29L132 30L131 29M162 29L162 33C162.71 31.2405 162.71 30.7595 162 29z"/>
<path style="fill:#595e72; stroke:none;" d="M177 29L177 33C177.71 31.2405 177.71 30.7595 177 29z"/>
<path style="fill:#9093a1; stroke:none;" d="M180 29L181 30L180 29z"/>
<path style="fill:#c7c9d0; stroke:none;" d="M221 29L221 33C221.71 31.2405 221.71 30.7595 221 29z"/>
<path style="fill:#595e72; stroke:none;" d="M227 29L227 33C227.71 31.2405 227.71 30.7595 227 29z"/>
<path style="fill:#9ba7e4; stroke:none;" d="M18 30L19 31L18 30z"/>
<path style="fill:#c7c9d0; stroke:none;" d="M83 30C85.3316 30.9845 87.4566 30.9813 90 31C87.6685 30.0155 85.5433 30.0187 83 30M92 30C96.137 33.1342 102.008 30.3848 105 35C105.683 33.494 105.826 32.6852 106 31L92 30z"/>
<path style="fill:#9093a1; stroke:none;" d="M106 30C109.697 31.5515 114.017 31 118 31L118 35C120.147 28.449 109.973 30 106 30z"/>
<path style="fill:#c7c9d0; stroke:none;" d="M118 30L119 31L118 30z"/>
<path style="fill:#212943; stroke:none;" d="M123 30L123 34L126 34L126 63L157 63L157 60L140 59.9992C137.582 59.9826 134.474 60.2676 132.603 58.3966C130.533 56.3258 131.005 52.6592 131 50L131 30L123 30z"/>
<path style="fill:#c7c9d0; stroke:none;" d="M201 30L202 31L201 30z"/>
<path style="fill:#9093a1; stroke:none;" d="M210.667 30.3333C210.222 30.7778 211.278 30.7222 211.333 30.6667C211.778 30.2222 210.722 30.2778 210.667 30.3333z"/>
<path style="fill:#9ba7e4; stroke:none;" d="M24 31L25 32L24 31z"/>
<path style="fill:#9093a1; stroke:none;" d="M86 31L87 32L86 31z"/>
<path style="fill:#212943; stroke:none;" d="M86 63L91 63C91 52.3882 89.7639 41.2087 93 31C82.3462 31.3542 85.4389 40.7642 85.946 48.0147C86.2925 52.9688 86 58.034 86 63M106 31L106 35L110 35C110 44.4056 110.18 53.6664 109 63C119.124 62.2112 115.274 46.319 116.129 39.0394C116.453 36.2789 117.635 33.762 118 31L106 31z"/>
<path style="fill:#9ba7e4; stroke:none;" d="M17 32L17 35C17.6961 33.4463 17.6961 33.5537 17 32z"/>
<path style="fill:#595e72; stroke:none;" d="M86 32L87 33L86 32M92 32L93 33L92 32z"/>
<path style="fill:#9093a1; stroke:none;" d="M93 32C92.7761 33.6839 92.7817 34.3135 93 36C93.7102 34.2405 93.7102 33.7595 93 32z"/>
<path style="fill:#212943; stroke:none;" d="M94 32L94 36L97 36L97 41L94 41L94 45L97 45L97 63L105 63C104.518 60.636 104.364 60.4824 102 60L102 45L105 45L105 41L102 41L102 36L105 36L105 32L94 32M134 32L134 36L138 36L136 56L141 56C141.528 49.311 142.944 42.7276 143 36L147 36L147 56L157 56L157 52L152 52L152 36L156 36L156 32L134 32z"/>
<path style="fill:#9ba7e4; stroke:none;" d="M23 33L24 34L23 33z"/>
<path style="fill:#c7c9d0; stroke:none;" d="M163 33C164.506 33.683 165.315 33.8259 167 34C165.494 33.317 164.685 33.1741 163 33z"/>
<path style="fill:#595e72; stroke:none;" d="M167 33L167 64C168.328 60.8344 168 57.4186 168 54C168 47.58 169.497 38.9508 167 33z"/>
<path style="fill:#9093a1; stroke:none;" d="M173 33L174 34L173 33z"/>
<path style="fill:#c7c9d0; stroke:none;" d="M174 33C175.506 33.683 176.315 33.8259 178 34C176.494 33.317 175.685 33.1741 174 33z"/>
<path style="fill:#9093a1; stroke:none;" d="M214 33C215.172 40.0209 223.446 37.6778 229 39C226.029 35.6001 219.257 37 215 37C214.826 35.3148 214.683 34.506 214 33M85.3333 34.6667C85.2778 34.7222 85.2222 35.7778 85.6667 35.3333C85.7222 35.2778 85.7778 34.2222 85.3333 34.6667z"/>
<path style="fill:#c7c9d0; stroke:none;" d="M173 34L173 64C175.483 58.4581 174.002 51.9216 174 46C173.998 42.0165 174.552 37.6994 173 34M179.333 34.6667C179.278 34.7222 179.222 35.7778 179.667 35.3333C179.722 35.2777 179.778 34.2222 179.333 34.6667z"/>
<path style="fill:#212943; stroke:none;" d="M180 34L181 41L186 41L185 34L180 34z"/>
<path style="fill:#c7c9d0; stroke:none;" d="M185 34L186 35L185 34z"/>
<path style="fill:#9ba7e4; stroke:none;" d="M22.3333 35.6667C22.2778 35.7222 22.2222 36.7778 22.6667 36.3333C22.7222 36.2778 22.7778 35.2222 22.3333 35.6667z"/>
<path style="fill:#697cd6; stroke:none;" d="M65.3333 35.6667C65.2778 35.7222 65.2222 36.7778 65.6667 36.3333C65.7222 36.2778 65.7778 35.2222 65.3333 35.6667z"/>
<path style="fill:#595e72; stroke:none;" d="M91 35L92 36L91 35z"/>
<path style="fill:#212943; stroke:none;" d="M163 35L163 61L166 61L166 35L163 35z"/>
<path style="fill:#9093a1; stroke:none;" d="M166 35L166 44C167.256 41.0059 167.256 37.9941 166 35z"/>
<path style="fill:#212943; stroke:none;" d="M174 35C175.351 42.2783 175 49.6232 175 57L178 57L177 35L174 35z"/>
<path style="fill:#595e72; stroke:none;" d="M177 35L177 44C178.256 41.0059 178.256 37.9941 177 35z"/>
<path style="fill:#9093a1; stroke:none;" d="M185 35L186 36L185 35z"/>
<path style="fill:#9ba7e4; stroke:none;" d="M16 36L16 39C16.6961 37.4463 16.6961 37.5537 16 36z"/>
<path style="fill:#cdd3f1; stroke:none;" d="M71.3333 36.6667C71.2778 36.7222 71.2222 37.7778 71.6667 37.3333C71.7222 37.2778 71.7778 36.2222 71.3333 36.6667z"/>
<path style="fill:#9093a1; stroke:none;" d="M91 36L91 64C93.6044 57.7934 93.6044 42.2066 91 36z"/>
<path style="fill:#c7c9d0; stroke:none;" d="M94.6667 36.3333C94.2222 36.7778 95.2778 36.7222 95.3333 36.6667C95.7778 36.2222 94.7222 36.2778 94.6667 36.3333z"/>
<path style="fill:#595e72; stroke:none;" d="M96 36L96 41C96.8299 38.9695 96.8299 38.0305 96 36z"/>
<path style="fill:#9093a1; stroke:none;" d="M102 36L103 37L102 36z"/>
<path style="fill:#c7c9d0; stroke:none;" d="M103.667 36.3333C103.222 36.7778 104.278 36.7222 104.333 36.6667C104.778 36.2222 103.722 36.2778 103.667 36.3333z"/>
<path style="fill:#595e72; stroke:none;" d="M134 36C135.506 36.683 136.315 36.8259 138 37C136.494 36.317 135.685 36.1741 134 36M143 36C144.506 36.683 145.315 36.8259 147 37C145.494 36.317 144.685 36.1741 143 36M152 36C153.506 36.683 154.315 36.8259 156 37C154.494 36.317 153.685 36.1741 152 36M185 36L185 39C185.696 37.4463 185.696 37.5537 185 36z"/>
<path style="fill:#cdd3f1; stroke:none;" d="M22 48L24 53C28.168 51.8301 30.3492 48.8585 33.9992 46.7531C35.5315 45.8692 38.1112 45.7701 39.2485 44.3264C41.5235 41.4382 36.7905 37.6447 33.9992 38.3457C29.5835 39.4546 25.7116 45.3855 22 48M65.3333 37.6667C65.2778 37.7222 65.2222 38.7778 65.6667 38.3333C65.7222 38.2778 65.7778 37.2222 65.3333 37.6667z"/>
<path style="fill:#9093a1; stroke:none;" d="M84.3333 37.6667C84.2778 37.7222 84.2222 38.7778 84.6667 38.3333C84.7222 38.2778 84.7778 37.2222 84.3333 37.6667z"/>
<path style="fill:#c7c9d0; stroke:none;" d="M102 37C102.674 39.2974 102.965 39.7741 105 41L102 37z"/>
<path style="fill:#9093a1; stroke:none;" d="M137 37L137 40C137.696 38.4463 137.696 38.5537 137 37M143.333 37.6667C143.278 37.7222 143.222 38.7778 143.667 38.3333C143.722 38.2778 143.778 37.2222 143.333 37.6667z"/>
<path style="fill:#c7c9d0; stroke:none;" d="M146 37L146 57C148.087 52.0272 148.087 41.9728 146 37z"/>
<path style="fill:#9093a1; stroke:none;" d="M152 37L152 52C153.74 47.8523 153.74 41.1477 152 37z"/>
<path style="fill:#595e72; stroke:none;" d="M174 37L174 47C175.346 43.793 175.346 40.207 174 37M180 37L180 40C180.696 38.4463 180.696 38.5537 180 37z"/>
<path style="fill:#c7c9d0; stroke:none;" d="M214 37L215 38L214 37z"/>
<path style="fill:#9ba7e4; stroke:none;" d="M71.3333 38.6667C71.2778 38.7222 71.2222 39.7778 71.6667 39.3333C71.7222 39.2778 71.7778 38.2222 71.3333 38.6667z"/>
<path style="fill:#9093a1; stroke:none;" d="M234 38L235 39L234 38z"/>
<path style="fill:#697cd6; stroke:none;" d="M16.3333 39.6667C16.2778 39.7222 16.2222 40.7778 16.6667 40.3333C16.7222 40.2778 16.7778 39.2222 16.3333 39.6667z"/>
<path style="fill:#c7c9d0; stroke:none;" d="M143 39L144 40L143 39M211 39L212 40L211 39M214 39L215 40L214 39z"/>
<path style="fill:#595e72; stroke:none;" d="M215 41L220 40C217.7 39.0843 216.623 39.1207 215 41z"/>
<path style="fill:#9093a1; stroke:none;" d="M220 39L221 40L220 39z"/>
<path style="fill:#9ba7e4; stroke:none;" d="M21.3333 40.6667C21.2778 40.7222 21.2222 41.7778 21.6667 41.3333C21.7222 41.2778 21.7778 40.2222 21.3333 40.6667z"/>
<path style="fill:#697cd6; stroke:none;" d="M55.6667 40.3333C55.2222 40.7778 56.2778 40.7222 56.3333 40.6667C56.7778 40.2222 55.7222 40.2778 55.6667 40.3333M71 40L71 43C71.6961 41.4463 71.6961 41.5537 71 40z"/>
<path style="fill:#c7c9d0; stroke:none;" d="M83 40L84 41L83 40M93 40C94.2484 40.6848 94.5484 40.7488 96 41C94.7517 40.3152 94.4516 40.2512 93 40z"/>
<path style="fill:#9093a1; stroke:none;" d="M102 40L103 41L102 40z"/>
<path style="fill:#595e72; stroke:none;" d="M137.333 40.6667C137.278 40.7222 137.222 41.7778 137.667 41.3333C137.722 41.2777 137.778 40.2222 137.333 40.6667z"/>
<path style="fill:#9093a1; stroke:none;" d="M180 40L181 41L180 40z"/>
<path style="fill:#595e72; stroke:none;" d="M210 40L211 41L210 40z"/>
<path style="fill:#c7c9d0; stroke:none;" d="M221 40L222 41L221 40z"/>
<path style="fill:#9093a1; stroke:none;" d="M227 40L228 41L227 40M233 40L234 41L233 40z"/>
<path style="fill:#9ba7e4; stroke:none;" d="M54 41L55 42L54 41z"/>
<path style="fill:#9093a1; stroke:none;" d="M83 41L84 42L83 41M93 41L93 45C93.7102 43.2405 93.7102 42.7595 93 41z"/>
<path style="fill:#c7c9d0; stroke:none;" d="M162 41L162 51C163.346 47.793 163.346 44.207 162 41M180 41L181 42L180 41z"/>
<path style="fill:#595e72; stroke:none;" d="M181 41C182.769 41.7789 184.036 41.9124 186 42C184.231 41.2211 182.964 41.0876 181 41z"/>
<path style="fill:#c7c9d0; stroke:none;" d="M215 41L216 42L215 41z"/>
<path style="fill:#595e72; stroke:none;" d="M221 41L222 42L221 41z"/>
<path style="fill:#9093a1; stroke:none;" d="M226 41L227 42L226 41M232 41L233 42L232 41z"/>
<path style="fill:#9ba7e4; stroke:none;" d="M20 42L21 43L20 42M45 42L46 43L45 42M53 42L54 43L53 42z"/>
<path style="fill:#595e72; stroke:none;" d="M83 42L84 43L83 42z"/>
<path style="fill:#c7c9d0; stroke:none;" d="M202.667 42.3333C202.222 42.7778 203.278 42.7222 203.333 42.6667C203.778 42.2223 202.722 42.2778 202.667 42.3333z"/>
<path style="fill:#9093a1; stroke:none;" d="M216 42L217 43L216 42z"/>
<path style="fill:#c7c9d0; stroke:none;" d="M222 42L223 43L222 42z"/>
<path style="fill:#595e72; stroke:none;" d="M226 42L227 43L226 42z"/>
<path style="fill:#697cd6; stroke:none;" d="M16 43C16.4057 45.0924 16.2167 45.0198 18 46C17.3087 44.6116 17.0154 44.1394 16 43z"/>
<path style="fill:#9ba7e4; stroke:none;" d="M19 43L20 44L19 43M44 43L45 44L44 43M52 43L53 44L52 43M71 43L71 46C71.6961 44.4463 71.6961 44.5537 71 43z"/>
<path style="fill:#9093a1; stroke:none;" d="M85 43L85 63C87.0866 58.0273 87.0866 47.9727 85 43z"/>
<path style="fill:#595e72; stroke:none;" d="M142 43L143 44L142 43z"/>
<path style="fill:#9093a1; stroke:none;" d="M194 43C195.248 43.6848 195.548 43.7488 197 44C195.752 43.3152 195.452 43.2512 194 43M201 43L201 48C201.83 45.9695 201.83 45.0305 201 43z"/>
<path style="fill:#595e72; stroke:none;" d="M222 43L223 44L222 43z"/>
<path style="fill:#9093a1; stroke:none;" d="M225 43L226 44L225 43M231 43L232 44L231 43z"/>
<path style="fill:#9ba7e4; stroke:none;" d="M18 44L19 45L18 44M43 44L44 45L43 44M51 44L52 45L51 44z"/>
<path style="fill:#c7c9d0; stroke:none;" d="M136.333 44.6667C136.278 44.7222 136.222 45.7778 136.667 45.3333C136.722 45.2777 136.778 44.2222 136.333 44.6667z"/>
<path style="fill:#9093a1; stroke:none;" d="M142 44L142 47C142.696 45.4463 142.696 45.5537 142 44z"/>
<path style="fill:#c7c9d0; stroke:none;" d="M166 44L166 53C167.256 50.0059 167.256 46.9941 166 44z"/>
<path style="fill:#9093a1; stroke:none;" d="M179 44L180 45L179 44z"/>
<path style="fill:#595e72; stroke:none;" d="M180 44C181.506 44.683 182.315 44.8259 184 45C182.494 44.317 181.685 44.1741 180 44M196 44L196 48C196.71 46.2405 196.71 45.7595 196 44z"/>
<path style="fill:#9093a1; stroke:none;" d="M217 44L218 45L217 44M223 44L224 45L223 44z"/>
<path style="fill:#9ba7e4; stroke:none;" d="M42 45L43 46L42 45M50 45L51 46L50 45z"/>
<path style="fill:#c7c9d0; stroke:none;" d="M94.6667 45.3333C94.2222 45.7777 95.2778 45.7222 95.3333 45.6667C95.7778 45.2222 94.7222 45.2778 94.6667 45.3333z"/>
<path style="fill:#595e72; stroke:none;" d="M96 45C96 49.1422 94.0507 60.1469 97.6034 62.9722C99.4842 64.4679 102.768 63.9921 105 64C102.387 62.9023 99.8355 63.0072 97 63C97 57.3678 98.1914 50.2224 96 45z"/>
<path style="fill:#9093a1; stroke:none;" d="M102 45L103 46L102 45z"/>
<path style="fill:#c7c9d0; stroke:none;" d="M103.667 45.3333C103.222 45.7777 104.278 45.7222 104.333 45.6667C104.778 45.2222 103.722 45.2778 103.667 45.3333M178 45L178 49C178.71 47.2405 178.71 46.7595 178 45z"/>
<path style="fill:#595e72; stroke:none;" d="M210 45L211 46L210 45z"/>
<path style="fill:#c7c9d0; stroke:none;" d="M211 45L212 46L211 45z"/>
<path style="fill:#595e72; stroke:none;" d="M218 45L219 46L218 45M224 45L225 46L224 45z"/>
<path style="fill:#9093a1; stroke:none;" d="M230 45L231 46L230 45z"/>
<path style="fill:#9ba7e4; stroke:none;" d="M41 46L42 47L41 46M49 46L50 47L49 46z"/>
<path style="fill:#cdd3f1; stroke:none;" d="M71.3333 46.6667C71.2778 46.7222 71.2222 47.7778 71.6667 47.3333C71.7222 47.2778 71.7778 46.2222 71.3333 46.6667z"/>
<path style="fill:#c7c9d0; stroke:none;" d="M102 46L102 59C103.591 55.2087 103.591 49.7913 102 46z"/>
<path style="fill:#9093a1; stroke:none;" d="M136 46L136 49C136.696 47.4463 136.696 47.5537 136 46z"/>
<path style="fill:#c7c9d0; stroke:none;" d="M218 46L219 47L218 46z"/>
<path style="fill:#9093a1; stroke:none;" d="M229 46L230 47L229 46z"/>
<path style="fill:#9ba7e4; stroke:none;" d="M40 47L41 48L40 47M48 47L49 48L48 47M63 47L64 48L63 47z"/>
<path style="fill:#c7c9d0; stroke:none;" d="M142.333 47.6667C142.278 47.7222 142.222 48.7778 142.667 48.3333C142.722 48.2777 142.778 47.2222 142.333 47.6667z"/>
<path style="fill:#9093a1; stroke:none;" d="M174 47L174 56C175.256 53.0059 175.256 49.9941 174 47z"/>
<path style="fill:#595e72; stroke:none;" d="M219 47L220 48L219 47z"/>
<path style="fill:#c7c9d0; stroke:none;" d="M229 47L230 48L229 47z"/>
<path style="fill:#9ba7e4; stroke:none;" d="M34.6667 48.3333C34.2222 48.7778 35.2778 48.7222 35.3333 48.6667C35.7778 48.2222 34.7222 48.2778 34.6667 48.3333M39 48L40 49L39 48M47 48L48 49L47 48M64 48L65 49L64 48z"/>
<path style="fill:#595e72; stroke:none;" d="M187 48L188 49L187 48z"/>
<path style="fill:#9093a1; stroke:none;" d="M194 48L195 49L194 48z"/>
<path style="fill:#c7c9d0; stroke:none;" d="M195.667 48.3333C195.222 48.7778 196.278 48.7222 196.333 48.6667C196.778 48.2222 195.722 48.2778 195.667 48.3333M201.667 48.3333C201.222 48.7778 202.278 48.7222 202.333 48.6667C202.778 48.2223 201.722 48.2778 201.667 48.3333z"/>
<path style="fill:#9093a1; stroke:none;" d="M228 48L229 49L228 48z"/>
<path style="fill:#9ba7e4; stroke:none;" d="M21 49L22 50L21 49M33 49L34 50L33 49M36 49L37 50L36 49M38 49L39 50L38 49M46 49L47 50L46 49M70.3333 49.6667C70.2778 49.7222 70.2222 50.7778 70.6667 50.3333C70.7222 50.2778 70.7778 49.2222 70.3333 49.6667z"/>
<path style="fill:#595e72; stroke:none;" d="M136 49L137 50L136 49z"/>
<path style="fill:#c7c9d0; stroke:none;" d="M179 49C180.506 49.683 181.315 49.8259 183 50C181.494 49.317 180.685 49.1741 179 49M187 49L187 64C188.74 59.8523 188.74 53.1477 187 49z"/>
<path style="fill:#595e72; stroke:none;" d="M193 49L193 64C194.74 59.8523 194.74 53.1477 193 49z"/>
<path style="fill:#9093a1; stroke:none;" d="M220 49L221 50L220 49z"/>
<path style="fill:#9ba7e4; stroke:none;" d="M20 50L21 51L20 50z"/>
<path style="fill:#7587d9; stroke:none;" d="M23 50L24 51L23 50z"/>
<path style="fill:#9ba7e4; stroke:none;" d="M32 50L33 51L32 50M45 50L46 51L45 50M64 50L65 51L64 50z"/>
<path style="fill:#595e72; stroke:none;" d="M221 50L222 51L221 50z"/>
<path style="fill:#9093a1; stroke:none;" d="M227 50L228 51L227 50z"/>
<path style="fill:#9ba7e4; stroke:none;" d="M19 51L20 52L19 51M31.3333 51.6667C31.2778 51.7222 31.2222 52.7778 31.6667 52.3333C31.7222 52.2778 31.7778 51.2222 31.3333 51.6667M44 51L45 52L44 51z"/>
<path style="fill:#595e72; stroke:none;" d="M141.333 51.6667C141.278 51.7222 141.222 52.7778 141.667 52.3333C141.722 52.2778 141.778 51.2222 141.333 51.6667z"/>
<path style="fill:#9093a1; stroke:none;" d="M162 51L162 61C163.346 57.793 163.346 54.207 162 51z"/>
<path style="fill:#595e72; stroke:none;" d="M227 51L228 52L227 51z"/>
<path style="fill:#9ba7e4; stroke:none;" d="M18.3333 52.6667C18.2778 52.7222 18.2222 53.7778 18.6667 53.3333C18.7222 53.2778 18.7778 52.2222 18.3333 52.6667M43 52L44 53L43 52M63 52L64 53L63 52M69 52L70 53L69 52z"/>
<path style="fill:#c7c9d0; stroke:none;" d="M135.333 52.6667C135.278 52.7222 135.222 53.7778 135.667 53.3333C135.722 53.2777 135.778 52.2222 135.333 52.6667z"/>
<path style="fill:#9093a1; stroke:none;" d="M220 52L221 53L220 52z"/>
<path style="fill:#c7c9d0; stroke:none;" d="M228 52L229 53L228 52z"/>
<path style="fill:#9ba7e4; stroke:none;" d="M32 53L33 54L32 53M42 53L43 54L42 53z"/>
<path style="fill:#9093a1; stroke:none;" d="M141.333 53.6667C141.278 53.7223 141.222 54.7778 141.667 54.3333C141.722 54.2778 141.778 53.2222 141.333 53.6667M219 53L220 54L219 53z"/>
<path style="fill:#595e72; stroke:none;" d="M228 53L229 54L228 53z"/>
<path style="fill:#9ba7e4; stroke:none;" d="M25 54L26 55L25 54M33 54L34 55L33 54M41 54L42 55L41 54M62 54L63 55L62 54M68 54L69 55L68 54z"/>
<path style="fill:#c7c9d0; stroke:none;" d="M109.333 54.6667C109.278 54.7222 109.222 55.7778 109.667 55.3333C109.722 55.2778 109.778 54.2222 109.333 54.6667z"/>
<path style="fill:#595e72; stroke:none;" d="M115 54L116 55L115 54z"/>
<path style="fill:#9093a1; stroke:none;" d="M135.333 54.6667C135.278 54.7222 135.222 55.7778 135.667 55.3333C135.722 55.2778 135.778 54.2222 135.333 54.6667z"/>
<path style="fill:#c7c9d0; stroke:none;" d="M178 54L178 58C178.71 56.2405 178.71 55.7595 178 54z"/>
<path style="fill:#595e72; stroke:none;" d="M209.333 54.6667C209.278 54.7222 209.222 55.7778 209.667 55.3333C209.722 55.2778 209.778 54.2222 209.333 54.6667M219 54L220 55L219 54z"/>
<path style="fill:#9093a1; stroke:none;" d="M229 54L230 55L229 54z"/>
<path style="fill:#9ba7e4; stroke:none;" d="M26 55L27 56L26 55M34 55L35 56L34 55M40 55L41 56L40 55M61 55L62 56L61 55z"/>
<path style="fill:#9093a1; stroke:none;" d="M115 55L115 58C115.696 56.4463 115.696 56.5537 115 55z"/>
<path style="fill:#c7c9d0; stroke:none;" d="M141.333 55.6667C141.278 55.7222 141.222 56.7778 141.667 56.3333C141.722 56.2778 141.778 55.2222 141.333 55.6667M203 55L204 56L203 55z"/>
<path style="fill:#9093a1; stroke:none;" d="M218 55L219 56L218 55z"/>
<path style="fill:#9ba7e4; stroke:none;" d="M27 56L28 57L27 56M35 56L36 57L35 56M39 56L40 57L39 56M60 56L61 57L60 56M67 56L68 57L67 56z"/>
<path style="fill:#9093a1; stroke:none;" d="M109 56L109 59C109.696 57.4463 109.696 57.5537 109 56z"/>
<path style="fill:#c7c9d0; stroke:none;" d="M135 56L136 57L135 56z"/>
<path style="fill:#595e72; stroke:none;" d="M136 56C137.769 56.7789 139.036 56.9124 141 57C139.231 56.2211 137.964 56.0876 136 56M147 56C150.163 57.3274 153.586 56.9996 157 57C153.837 55.6726 150.414 56.0004 147 56z"/>
<path style="fill:#9093a1; stroke:none;" d="M203 56L203 59C203.696 57.4463 203.696 57.5537 203 56M209 56L209 59C209.696 57.4463 209.696 57.5537 209 56z"/>
<path style="fill:#c7c9d0; stroke:none;" d="M224 56L225 57L224 56z"/>
<path style="fill:#9093a1; stroke:none;" d="M230 56L231 57L230 56z"/>
<path style="fill:#9ba7e4; stroke:none;" d="M36 57L37 58L36 57M38 57L39 58L38 57M59 57L60 58L59 57z"/>
<path style="fill:#595e72; stroke:none;" d="M175 57C176.248 57.6848 176.548 57.7488 178 58C176.752 57.3152 176.452 57.2512 175 57z"/>
<path style="fill:#9093a1; stroke:none;" d="M217 57L218 58L217 57M223 57L224 58L223 57z"/>
<path style="fill:#595e72; stroke:none;" d="M225 57L226 58L225 57z"/>
<path style="fill:#c7c9d0; stroke:none;" d="M231 57L232 58L231 57z"/>
<path style="fill:#9ba7e4; stroke:none;" d="M21 58L22 59L21 58M29 58L30 59L29 58M58 58L59 59L58 58z"/>
<path style="fill:#c7c9d0; stroke:none;" d="M115.333 58.6667C115.278 58.7222 115.222 59.7778 115.667 59.3333C115.722 59.2778 115.778 58.2222 115.333 58.6667M216 58L217 59L216 58z"/>
<path style="fill:#9093a1; stroke:none;" d="M222 58L223 59L222 58z"/>
<path style="fill:#c7c9d0; stroke:none;" d="M225 58L226 59L225 58z"/>
<path style="fill:#595e72; stroke:none;" d="M231 58L232 59L231 58z"/>
<path style="fill:#9ba7e4; stroke:none;" d="M22 59L23 60L22 59M30 59L31 60L30 59M57 59L58 60L57 59M65 59L66 60L65 59z"/>
<path style="fill:#595e72; stroke:none;" d="M102 59C103.248 59.6848 103.548 59.7488 105 60C103.752 59.3152 103.452 59.2512 102 59z"/>
<path style="fill:#c7c9d0; stroke:none;" d="M105 59L105 64C105.83 61.9695 105.83 61.0305 105 59z"/>
<path style="fill:#595e72; stroke:none;" d="M109 59L110 60L109 59z"/>
<path style="fill:#9093a1; stroke:none;" d="M157 59L158 60L157 59z"/>
<path style="fill:#595e72; stroke:none;" d="M203.333 59.6667C203.278 59.7222 203.222 60.7778 203.667 60.3333C203.722 60.2778 203.778 59.2222 203.333 59.6667z"/>
<path style="fill:#c7c9d0; stroke:none;" d="M209 59L210 60L209 59z"/>
<path style="fill:#9093a1; stroke:none;" d="M216 59L217 60L216 59z"/>
<path style="fill:#c7c9d0; stroke:none;" d="M222 59L223 60L222 59z"/>
<path style="fill:#9093a1; stroke:none;" d="M226 59L227 60L226 59z"/>
<path style="fill:#c7c9d0; stroke:none;" d="M232 59L233 60L232 59z"/>
<path style="fill:#9ba7e4; stroke:none;" d="M64 60L65 61L64 60z"/>
<path style="fill:#9093a1; stroke:none;" d="M215 60L216 61L215 60M221 60L222 61L221 60z"/>
<path style="fill:#9ba7e4; stroke:none;" d="M24 61L25 62L24 61M33 61L34 62L33 61M63 61L64 62L63 61z"/>
<path style="fill:#c7c9d0; stroke:none;" d="M227 61L228 62L227 61z"/>
<path style="fill:#9093a1; stroke:none;" d="M233 61L234 62L233 61z"/>
<path style="fill:#9ba7e4; stroke:none;" d="M25 62L26 63L25 62M35.6667 62.3333C35.2222 62.7778 36.2778 62.7222 36.3333 62.6667C36.7778 62.2222 35.7222 62.2778 35.6667 62.3333M51 62L52 63L51 62M62 62L63 63L62 62z"/>
<path style="fill:#9093a1; stroke:none;" d="M108 62L109 63L108 62M114.333 62.6667C114.278 62.7222 114.222 63.7778 114.667 63.3333C114.722 63.2778 114.778 62.2222 114.333 62.6667z"/>
<path style="fill:#c7c9d0; stroke:none;" d="M202.333 62.6667C202.278 62.7222 202.222 63.7778 202.667 63.3333C202.722 63.2778 202.778 62.2222 202.333 62.6667z"/>
<path style="fill:#9093a1; stroke:none;" d="M208.333 62.6667C208.278 62.7222 208.222 63.7778 208.667 63.3333C208.722 63.2778 208.778 62.2222 208.333 62.6667M214 62L215 63L214 62M220 62L221 63L220 62z"/>
<path style="fill:#595e72; stroke:none;" d="M228 62L229 63L228 62z"/>
<path style="fill:#c7c9d0; stroke:none;" d="M234 62L235 63L234 62z"/>
<path style="fill:#9ba7e4; stroke:none;" d="M26 63L27 64L26 63M38 63C39.2484 63.6848 39.5484 63.7488 41 64C39.7516 63.3152 39.4516 63.2512 38 63z"/>
<path style="fill:#cdd3f1; stroke:none;" d="M41.6667 63.3333C41.2222 63.7778 42.2778 63.7222 42.3333 63.6667C42.7778 63.2222 41.7222 63.2778 41.6667 63.3333M45.6667 63.3333C45.2222 63.7778 46.2778 63.7222 46.3333 63.6667C46.7778 63.2222 45.7222 63.2778 45.6667 63.3333z"/>
<path style="fill:#697cd6; stroke:none;" d="M47 63C48.2484 63.6848 48.5484 63.7488 50 64C48.7517 63.3152 48.4516 63.2512 47 63z"/>
<path style="fill:#c7c9d0; stroke:none;" d="M85 63L86 64L85 63z"/>
<path style="fill:#595e72; stroke:none;" d="M86 63C87.769 63.7789 89.0359 63.9124 91 64C89.2309 63.2211 87.9641 63.0876 86 63z"/>
<path style="fill:#9093a1; stroke:none;" d="M96 63L97 64L96 63z"/>
<path style="fill:#c7c9d0; stroke:none;" d="M108 63L109 64L108 63z"/>
<path style="fill:#595e72; stroke:none;" d="M109 63C110.769 63.7789 112.036 63.9124 114 64C112.231 63.2211 110.964 63.0876 109 63z"/>
<path style="fill:#9093a1; stroke:none;" d="M157 63L158 64L157 63z"/>
<path style="fill:#595e72; stroke:none;" d="M203 63C204.769 63.7789 206.036 63.9124 208 64C206.231 63.2211 204.964 63.0876 203 63M219 63L220 64L219 63z"/>
<path style="fill:#c7c9d0; stroke:none;" d="M228 63L229 64L228 63z"/>
<path style="fill:#595e72; stroke:none;" d="M234 63L235 64L234 63z"/>
<path style="fill:#9ba7e4; stroke:none;" d="M29 65L30 66L29 65M31 66L32 67L31 66M33 67L34 68L33 67M35 68C36.2483 68.6848 36.5484 68.7488 38 69C36.7516 68.3152 36.4516 68.2512 35 68z"/>
<path style="fill:#cdd3f1; stroke:none;" d="M40.6667 69.3333C40.2222 69.7778 41.2778 69.7222 41.3333 69.6667C41.7778 69.2222 40.7222 69.2778 40.6667 69.3333z"/>
<path style="fill:#9ba7e4; stroke:none;" d="M42 69C43.2484 69.6848 43.5484 69.7488 45 70C43.7516 69.3152 43.4516 69.2512 42 69z"/>
<path style="fill:#cdd3f1; stroke:none;" d="M45 69C46.2484 69.6848 46.5484 69.7488 48 70C46.7516 69.3152 46.4516 69.2512 45 69z"/>
</svg>
